<?xml version="1.0" standalone="no"?>
<!DOCTYPE svg PUBLIC "-//W3C//DTD SVG 20010904//EN"
 "http://www.w3.org/TR/2001/REC-SVG-20010904/DTD/svg10.dtd">
<svg version="1.0" xmlns="http://www.w3.org/2000/svg"
 width="400.000000pt" height="400.000000pt" viewBox="0 0 400.000000 400.000000"
 preserveAspectRatio="xMidYMid meet">

<g transform="translate(0.000000,400.000000) scale(0.100000,-0.100000)"
fill="#000000" stroke="none">
<path d="M2785 3006 c-143 -200 -178 -244 -212 -263 -25 -14 -92 -31 -187 -46
-138 -23 -156 -29 -264 -83 -112 -56 -120 -59 -192 -59 -56 0 -83 5 -103 18
-26 17 -27 17 -27 0 1 -31 38 -101 60 -113 14 -8 35 -9 59 -4 20 5 42 8 50 7
19 -2 91 35 91 45 0 5 7 17 15 28 13 17 13 16 4 -18 -7 -28 -6 -47 6 -80 9
-23 19 -50 21 -59 3 -9 -10 -34 -31 -59 -34 -41 -37 -49 -33 -92 l5 -48 -122
0 c-154 0 -206 -14 -274 -76 -65 -59 -88 -100 -141 -251 -43 -122 -43 -123
-74 -123 -39 0 -56 -15 -56 -50 0 -34 17 -50 55 -50 37 0 65 -26 65 -61 0 -48
-5 -49 -312 -49 -275 0 -289 -1 -308 -20 -25 -25 -25 -45 0 -70 19 -19 33 -20
320 -20 286 0 300 -1 310 -19 16 -31 12 -59 -12 -75 -20 -14 -80 -16 -463 -16
-330 0 -444 -3 -453 -12 -15 -15 -15 -61 0 -76 9 -9 100 -12 350 -12 216 0
338 -4 338 -10 0 -5 -9 -33 -20 -62 -11 -29 -20 -56 -20 -60 0 -5 90 -8 199
-8 l199 0 28 78 c15 42 44 122 64 177 l37 100 54 8 c73 10 165 55 217 106 44
43 104 130 116 169 l7 22 -140 0 c-78 0 -141 3 -141 6 0 3 12 39 26 80 l27 74
186 0 186 0 52 30 c60 35 117 105 162 200 l31 65 -200 3 -201 2 -9 26 c-13 34
-1 54 57 97 27 20 62 49 78 67 27 28 30 38 28 88 -1 54 -1 55 11 28 11 -24 27
-33 102 -58 67 -22 103 -28 146 -25 32 2 60 6 64 9 7 8 -15 50 -35 65 -14 10
-13 11 7 6 12 -3 26 -13 31 -22 7 -13 21 -205 21 -291 0 -43 -68 -167 -127
-230 l-55 -60 101 0 c61 0 101 -4 101 -10 0 -6 -41 -123 -91 -260 l-92 -250
-245 0 c-283 0 -297 -3 -375 -90 -41 -46 -117 -175 -117 -199 0 -15 729 -15
819 0 92 14 154 44 204 98 66 71 88 115 188 391 83 229 92 264 96 340 5 79 3
89 -24 140 -33 64 -102 116 -166 127 -22 3 -47 13 -56 22 -9 9 -30 26 -48 39
-17 12 -34 33 -37 47 -10 38 40 151 96 218 68 82 78 105 78 186 0 93 9 112 74
161 71 52 74 75 10 84 -25 3 -57 15 -71 26 -14 11 -34 20 -44 20 -14 0 -19 7
-19 28 -1 25 -2 26 -14 9 -13 -16 -15 -17 -23 -3 -7 13 -10 13 -18 2z"/>
<path d="M811 1918 c-5 -13 -6 -30 -3 -38 13 -38 28 -40 337 -40 325 0 345 3
345 54 0 45 -6 46 -347 46 l-324 0 -8 -22z"/>
<path d="M537 1712 c-22 -24 -21 -45 1 -65 17 -15 58 -17 378 -17 267 0 363 3
372 12 15 15 15 61 0 76 -9 9 -106 12 -373 12 -338 0 -363 -1 -378 -18z"/>
<path d="M3161 1631 c-12 -12 -17 -27 -14 -40 6 -25 49 -38 72 -24 23 15 26
54 5 70 -25 18 -41 16 -63 -6z"/>
<path d="M3511 1489 c-97 -18 -159 -88 -168 -189 -7 -78 15 -138 69 -184 96
-82 259 -66 325 33 115 171 -23 378 -226 340z m124 -89 c110 -68 71 -249 -55
-260 -64 -6 -83 1 -121 39 -35 35 -39 44 -39 90 0 29 7 65 15 82 34 66 134 90
200 49z"/>
<path d="M3150 1275 l0 -205 40 0 40 0 0 205 0 205 -40 0 -40 0 0 -205z"/>
<path d="M234 1279 c-17 -19 -17 -23 -3 -47 14 -25 20 -27 94 -30 44 -2 90 0
102 3 27 6 39 45 23 74 -10 19 -20 21 -104 21 -81 0 -95 -3 -112 -21z"/>
<path d="M2935 1146 c-32 -48 22 -104 74 -76 24 12 29 68 9 88 -21 21 -66 14
-83 -12z"/>
</g>
</svg>
